<!DOCTYPE svg PUBLIC "-//W3C//DTD SVG 20010904//EN" "http://www.w3.org/TR/2001/REC-SVG-20010904/DTD/svg10.dtd">
<svg version="1.0" xmlns="http://www.w3.org/2000/svg" width="102px" height="80px" viewBox="0 0 1020 800" preserveAspectRatio="xMidYMid meet">
<g id="layer101" fill="#ed7839" stroke="none">
 <path d="M370 515 l-94 -95 29 -30 c16 -16 33 -30 39 -30 6 0 36 26 68 57 l58 58 123 -123 c67 -67 127 -122 133 -122 13 0 64 52 64 66 0 12 -302 314 -315 314 -6 0 -53 -43 -105 -95z"/>
 <path d="M411 326 c-68 -69 -71 -82 -26 -112 26 -17 27 -17 58 14 l32 32 80 -80 81 -80 32 33 32 33 -113 112 -112 112 -64 -64z"/>
 </g>

</svg>