<!DOCTYPE svg PUBLIC "-//W3C//DTD SVG 20010904//EN" "http://www.w3.org/TR/2001/REC-SVG-20010904/DTD/svg10.dtd">
<svg version="1.0" xmlns="http://www.w3.org/2000/svg" width="54px" height="34px" viewBox="0 0 540 340" preserveAspectRatio="xMidYMid meet">
<g id="layer101" fill="#717171" stroke="none">
 <path d="M201 227 c-40 -42 -41 -45 -25 -61 16 -16 18 -16 45 10 l29 28 54 -53 c36 -36 60 -52 70 -48 9 4 16 10 16 14 0 5 -33 41 -73 81 l-73 72 -43 -43z"/>
 <path d="M216 132 c-24 -26 -25 -30 -11 -42 12 -10 18 -10 30 0 13 11 21 8 50 -20 29 -28 36 -31 50 -20 14 12 11 19 -32 62 -26 26 -50 48 -53 48 -4 0 -19 -13 -34 -28z"/>
 </g>

</svg>