<!DOCTYPE svg PUBLIC "-//W3C//DTD SVG 20010904//EN" "http://www.w3.org/TR/2001/REC-SVG-20010904/DTD/svg10.dtd">
<svg version="1.0" xmlns="http://www.w3.org/2000/svg" width="101px" height="92px" viewBox="0 0 1010 920" preserveAspectRatio="xMidYMid meet">
<g id="layer101" fill="#f0a880" stroke="none">
 <path d="M720 670 c-8 -5 -47 -10 -87 -10 -82 0 -103 -13 -103 -63 0 -26 6 -35 33 -47 28 -13 33 -20 37 -65 l5 -50 58 -3 c32 -2 65 2 72 8 8 6 15 44 19 93 3 45 7 95 8 112 3 32 -15 43 -42 25z m-100 -80 c0 -14 33 -13 48 2 22 22 24 -1 6 -52 -10 -27 -23 -50 -30 -50 -6 0 -19 19 -28 43 -18 49 -20 67 -6 67 6 0 10 -4 10 -10z"/>
 <path d="M640 550 c0 -7 3 -10 7 -7 3 4 3 10 0 14 -4 3 -7 0 -7 -7z"/>
 <path d="M351 551 c-11 -7 -11 -15 -2 -41 6 -18 11 -63 11 -101 0 -102 -3 -99 110 -99 80 0 99 3 104 16 11 29 7 179 -6 192 -7 7 -41 12 -83 12 -47 0 -78 5 -91 15 -23 17 -25 17 -43 6z m174 -110 c3 -36 -27 -81 -54 -81 -28 0 -61 30 -61 56 0 38 34 65 77 61 32 -4 36 -7 38 -36z"/>
 <path d="M442 423 c2 -22 8 -28 28 -28 16 0 26 6 28 18 2 10 -2 16 -10 15 -7 -2 -12 3 -10 10 1 6 -7 12 -19 12 -16 0 -20 -5 -17 -27z"/>
 </g>

</svg>