<!DOCTYPE svg PUBLIC "-//W3C//DTD SVG 20010904//EN" "http://www.w3.org/TR/2001/REC-SVG-20010904/DTD/svg10.dtd">
<svg version="1.0" xmlns="http://www.w3.org/2000/svg" width="121px" height="90px" viewBox="0 0 1210 900" preserveAspectRatio="xMidYMid meet">
<g id="layer101" fill="#4d4d4d" stroke="none">
<path d="M562 588 c-47 -16 -61 -25 -57 -36 3 -8 10 -34 16 -58 6 -24 16 -44 23 -44 21 1 117 37 129 49 18 18 -11 33 -51 26 -23 -4 -32 -3 -27 4 10 17 65 13 122 -9 98 -37 116 4 21 48 -89 41 -105 43 -176 20z"/>
<path d="M430 501 l0 -81 28 0 c54 0 58 11 37 87 -17 56 -24 69 -43 71 -21 3 -22 1 -22 -77z"/>
</g>
<g id="layer102" fill="#f0a880" stroke="none">
<path d="M625 391 c-13 -26 -19 -29 -48 -24 -28 4 -37 1 -55 -22 -12 -15 -22 -35 -22 -44 0 -9 -7 -27 -16 -39 -14 -20 -14 -23 1 -28 9 -4 35 -4 58 -1 49 7 87 44 87 86 0 15 3 31 7 34 12 12 31 -28 26 -54 -6 -33 36 -69 82 -69 42 0 46 5 28 43 -26 58 -30 62 -59 65 -30 4 -53 27 -54 54 0 30 -19 29 -35 -1z"/>
</g>


</svg>