<!DOCTYPE svg PUBLIC "-//W3C//DTD SVG 20010904//EN" "http://www.w3.org/TR/2001/REC-SVG-20010904/DTD/svg10.dtd">
<svg version="1.0" xmlns="http://www.w3.org/2000/svg" width="79px" height="81px" viewBox="0 0 790 810" preserveAspectRatio="xMidYMid meet">
<g id="layer101" fill="#4d4d4d" stroke="none">
<path d="M220 530 c0 -36 23 -50 85 -50 62 0 85 14 85 50 l0 30 -85 0 -85 0 0 -30z"/>
<path d="M420 537 c0 -39 30 -57 92 -57 60 0 88 18 88 58 0 21 -4 22 -90 22 -88 0 -90 -1 -90 -23z"/>
<path d="M272 438 c-28 -28 -7 -78 33 -78 12 0 26 5 33 12 28 28 7 78 -33 78 -12 0 -26 -5 -33 -12z"/>
<path d="M475 430 c-27 -30 -7 -70 34 -70 45 0 66 44 35 74 -21 22 -47 20 -69 -4z"/>
</g>
<g id="layer102" fill="#f0a880" stroke="none">
<path d="M377 364 c-12 -12 4 -24 34 -24 19 0 29 5 29 15 0 15 -50 22 -63 9z"/>
<path d="M362 307 c-22 -23 -29 -71 -14 -93 10 -15 47 -34 67 -34 24 0 65 46 65 73 0 13 -9 36 -21 51 -26 33 -68 34 -97 3z"/>
</g>


</svg>